<?xml version="1.0"?>
<svg width="1000" height="340.1574" xmlns="http://www.w3.org/2000/svg" xmlns:svg="http://www.w3.org/2000/svg" xmlns:xlink="http://www.w3.org/1999/xlink">
 <defs>
  <clipPath id="clip1">
   <path id="svg_1" d="m0,340.15625l481.89063,0l0,-340.15625l-481.89063,0l0,340.15625zm0,0"/>
  </clipPath>
  <symbol viewBox="0 0 64 64" y="0px" x="0px" id="svg_8" xmlns:xlink="http://www.w3.org/1999/xlink" xmlns="http://www.w3.org/2000/svg">
   <g>
    <path d="m63.6,32.4c0.6,-0.6 0.5,-1.7 0,-2.3l-3.1,-3.1l-13.8,-13.4c-0.6,-0.6 -1.5,-0.6 -2.2,0l0,0c-0.6,0.6 -0.8,1.7 0,2.3l14.5,14.2c0.6,0.6 0.6,1.7 0,2.3l-14.8,14.7c-0.6,0.6 -0.6,1.7 0,2.3l0,0c0.6,0.6 1.7,0.5 2.2,0l13.7,-13.6c0,0 0,0 0.1,-0.1l3.4,-3.3z" fill="#3999C6"/>
    <path d="m0.4,32.4c-0.6,-0.6 -0.5,-1.7 0,-2.3l3.1,-3.1l13.8,-13.4c0.6,-0.6 1.5,-0.6 2.2,0l0,0c0.6,0.6 0.8,1.7 0,2.3l-14.2,14.2c-0.6,0.6 -0.6,1.7 0,2.3l14.5,14.7c0.6,0.6 0.6,1.7 0,2.3l0,0c-0.6,0.6 -1.7,0.5 -2.2,0l-14,-13.4c0,0 0,0 -0.1,-0.1l-3.1,-3.5z" fill="#3999C6"/>
    <polygon points="47.6,2.5 28.1,2.5 17.6,32.1 30.4,32.2 20.4,61.5 48,22.4 34.6,22.4  " fill="#FCD116"/>
    <polygon points="34.6,22.4 47.6,2.5 37.4,2.5 26.6,27.1 39.4,27.2    20.4,61.5 48,22.4  " fill="#FF8C00" opacity="0.3"/>
   </g>
  </symbol>
 </defs>
 <g>
  <title>Layer 1</title>
  <g id="surface0">
   <g id="svg_2" clip-rule="nonzero" clip-path="url(#clip1)">
    <path id="svg_3" fill-rule="nonzero" fill="rgb(69,59,97)" d="m0,340.15625l113.38672,-170.07812l-113.38672,-170.07813l85.03906,0l113.38672,170.07813l-113.38672,170.07812l-85.03906,0zm0,0"/>
    <path id="svg_4" fill-rule="nonzero" fill="rgb(95,82,134)" d="m113.38672,340.15625l113.38672,-170.07812l-113.38672,-170.07813l85.03906,0l226.76953,340.15625l-85.03906,0l-70.86328,-106.29687l-70.86719,106.29687l-85.03906,0zm0,0"/>
    <path id="svg_5" fill-rule="nonzero" fill="rgb(142,80,138)" d="m387.40234,240.94531l-37.79296,-56.6914l132.28125,-0.00391l0,56.69531l-94.48829,0zm0,0"/>
    <path id="svg_6" fill-rule="nonzero" fill="rgb(142,80,138)" d="m330.71094,155.90625l-37.79688,-56.69141l188.97657,-0.0039l0,56.69531l-151.17969,0zm0,0"/>
   </g>
  </g>
  <use x="44.750344" y="0" transform="matrix(1.0726174416098246,0,0,1.0726174416098246,229.51785185133002,-12.160048535475063) " xlink:href="#svg_8" id="svg_9"/>
  <g id="svg_10"/>
 </g>
</svg>